<svg width="16" height="32" viewBox="0 0 16 32" fill="none" xmlns="http://www.w3.org/2000/svg">
<path d="M12.9565 31.0763C12.6249 31.0775 12.2973 31.0043 11.9977 30.8622C11.6981 30.72 11.4342 30.5126 11.2253 30.2551L0.504919 16.9379C0.178465 16.5407 0 16.0426 0 15.5285C0 15.0144 0.178465 14.5162 0.504919 14.119L11.6026 0.801814C11.9794 0.348547 12.5207 0.0635037 13.1076 0.00939198C13.6945 -0.0447198 14.2789 0.136532 14.7322 0.513273C15.1854 0.890015 15.4705 1.43139 15.5246 2.01829C15.5787 2.60519 15.3974 3.18956 15.0207 3.64282L5.09936 15.5396L14.6878 27.4363C14.9592 27.7621 15.1316 28.1588 15.1846 28.5795C15.2376 29.0002 15.169 29.4273 14.9868 29.8102C14.8047 30.1932 14.5167 30.5159 14.1569 30.7403C13.7971 30.9647 13.3805 31.0813 12.9565 31.0763V31.0763Z" fill="#63363B"/>
</svg>
