<svg width="43" height="39" viewBox="0 0 43 39" fill="none" xmlns="http://www.w3.org/2000/svg">
<path d="M33.4723 37.0105L33.4487 37.0095L33.4251 37.0096C33.237 37.0103 33.0538 36.9686 32.891 36.8906C32.89 36.8901 32.8889 36.8896 32.8879 36.8891L22.0758 31.5527L21.6332 31.3342L21.1906 31.5527L10.3708 36.8929L10.3693 36.8936C10.179 36.988 9.96036 37.0318 9.73941 37.0164C9.51849 37.0011 9.31146 36.9277 9.14147 36.8106C8.97194 36.6937 8.84861 36.5401 8.77734 36.3728C8.70635 36.2061 8.68737 36.0274 8.71992 35.8547L7.73881 35.6698L8.71992 35.8547L10.8414 24.5943L10.9445 24.0473L10.5339 23.6714L1.79912 15.6765C1.66087 15.5451 1.56883 15.3869 1.52505 15.2218C1.48179 15.0587 1.4854 14.8884 1.536 14.7264C1.59548 14.5602 1.70515 14.4046 1.86118 14.2812C2.02057 14.155 2.22028 14.0691 2.43893 14.0398L2.44212 14.0394L14.5348 12.3793L15.0478 12.3089L15.2864 11.8493L20.6114 1.58891L20.6133 1.58522C20.6979 1.42049 20.8346 1.27304 21.0152 1.16631C21.1962 1.05933 21.4106 1 21.6332 1C21.8558 1 22.0702 1.05933 22.2512 1.16631C22.4318 1.27304 22.5685 1.42049 22.6531 1.58522L22.653 1.58524L22.6576 1.59394L28.0463 11.8343L28.2858 12.2894L28.7952 12.3593L40.8879 14.0194L40.8911 14.0198C41.1098 14.0491 41.3095 14.135 41.4689 14.2612C41.6249 14.3846 41.7345 14.5402 41.794 14.7063C41.8446 14.8684 41.8483 15.0387 41.805 15.2019C41.7612 15.367 41.6692 15.5251 41.5309 15.6566L32.7961 23.6514L32.3855 24.0273L32.4886 24.5743L34.6101 35.8347L34.61 35.8347L34.6126 35.8475C34.6482 36.0234 34.6301 36.2059 34.558 36.3759C34.4861 36.5452 34.361 36.7005 34.1888 36.818C33.9848 36.9515 33.7328 37.0219 33.4723 37.0105Z" fill="#DD6E51" stroke="#DD6E51" stroke-width="2"/>
</svg>
