<svg width="11" height="5" viewBox="0 0 11 5" fill="none" xmlns="http://www.w3.org/2000/svg">
<path d="M5.49137 4.99831C5.30811 4.99864 5.13051 4.94054 4.98939 4.83411L0.283345 1.26453C0.12317 1.14335 0.022441 0.969215 0.00331894 0.780437C-0.0158031 0.591658 0.0482477 0.403697 0.181381 0.257904C0.314514 0.11211 0.505824 0.020426 0.713224 0.00302095C0.920625 -0.0143841 1.12713 0.0439153 1.2873 0.165095L5.49137 3.36344L9.69544 0.279322C9.77567 0.22002 9.86799 0.175734 9.96708 0.149011C10.0662 0.122288 10.1701 0.113654 10.2729 0.123605C10.3756 0.133557 10.4752 0.161897 10.5659 0.206998C10.6566 0.252099 10.7366 0.313071 10.8014 0.386409C10.8732 0.459815 10.9276 0.545932 10.9612 0.639365C10.9947 0.732798 11.0067 0.831533 10.9964 0.929385C10.9861 1.02724 10.9537 1.1221 10.9013 1.20802C10.8488 1.29395 10.7774 1.36908 10.6916 1.42873L5.98551 4.87695C5.84034 4.96655 5.66636 5.00928 5.49137 4.99831V4.99831Z" fill="white"/>
</svg>
